<svg xmlns="http://www.w3.org/2000/svg" width="112" height="24" viewBox="0 0 112 24" fill="none">
  <path fill-rule="evenodd" clip-rule="evenodd" d="M106 6C104.358 6 102.842 6.69474 101.768 7.76842C100.663 8.84211 100 10.3579 100 12C100 13.6421 100.695 15.1579 101.768 16.2316C102.842 17.3368 104.358 18 106 18C107.642 18 109.158 17.3053 110.232 16.2316C111.305 15.1579 112 13.6421 112 12C112 11.8147 111.991 11.631 111.974 11.4494C111.867 12.369 111.438 13.2044 110.821 13.8211C110.105 14.5368 109.095 15 108 15C106.905 15 105.895 14.5579 105.179 13.8211C104.463 13.1053 104 12.0947 104 11C104 9.90526 104.442 8.89474 105.179 8.17895C105.895 7.46316 106.905 7 108 7C108.716 7 109.397 7.18933 109.982 7.52669C108.929 6.56718 107.519 6 106 6Z" fill="white"/>
</svg>